<?xml version="1.0" encoding="utf-8"?>
<!-- Generator: Adobe Illustrator 27.5.0, SVG Export Plug-In . SVG Version: 6.00 Build 0)  -->
<svg version="1.1" xmlns="http://www.w3.org/2000/svg" xmlns:xlink="http://www.w3.org/1999/xlink" x="0px" y="0px"
	 viewBox="0 0 750 500" style="enable-background:new 0 0 750 500;" xml:space="preserve">
<g id="BACKGROUND">
	<rect style="fill:#FFFFFF;" width="750" height="500"/>
</g>
<g id="OBJECTS">
	<g>
		<g>
			<path style="opacity:0.4;fill:#F5B0CB;" d="M254.061,319.646L254.061,319.646c-4.249-1.239-6.259-6.092-4.131-9.972l0,0
				c1.479-2.697,1.001-6.047-1.175-8.222l-2.426-2.426l-2.426-2.426c-2.175-2.175-5.525-2.654-8.222-1.175h0
				c-3.88,2.128-8.733,0.118-9.972-4.131l0,0c-0.861-2.953-3.568-4.983-6.644-4.983h-3.43h-3.43c-3.076,0-5.783,2.03-6.644,4.983v0
				c-1.239,4.248-6.092,6.259-9.972,4.131h0c-2.697-1.479-6.047-1.001-8.222,1.175l-2.426,2.426l-2.426,2.426
				c-2.175,2.175-2.654,5.525-1.174,8.222v0c2.128,3.88,0.118,8.733-4.131,9.972h0c-2.953,0.861-4.983,3.568-4.983,6.645v3.43v3.43
				c0,3.076,2.03,5.783,4.983,6.644l0,0c4.248,1.239,6.259,6.092,4.131,9.972c-1.479,2.697-1.001,6.047,1.174,8.222l2.426,2.426
				l2.426,2.426c2.175,2.175,5.525,2.654,8.222,1.175l0,0c3.88-2.128,8.733-0.118,9.972,4.131v0
				c0.861,2.953,3.568,4.983,6.644,4.983h3.43h3.43c3.076,0,5.783-2.03,6.644-4.983l0,0c1.239-4.248,6.092-6.259,9.972-4.131l0,0
				c2.697,1.479,6.047,1,8.222-1.175l2.426-2.426l2.426-2.426c2.175-2.175,2.654-5.525,1.174-8.222
				c-2.128-3.88-0.118-8.733,4.131-9.972l0,0c2.953-0.861,4.983-3.568,4.983-6.644v-3.43v-3.43
				C259.044,323.214,257.014,320.507,254.061,319.646z M215.635,347.453c-9.794,0-17.733-7.939-17.733-17.733
				c0-9.794,7.939-17.733,17.733-17.733c9.794,0,17.733,7.939,17.733,17.733C233.368,339.514,225.429,347.453,215.635,347.453z"/>
			<g style="opacity:0.4;">
				
					<path style="fill:none;stroke:#F5B0CB;stroke-width:2.9233;stroke-linecap:round;stroke-linejoin:round;stroke-miterlimit:10;" d="
					M606.957,253.906L606.957,253.906c1.151-2.099,0.779-4.706-0.914-6.399l-1.888-1.888l-1.888-1.888
					c-1.693-1.693-4.3-2.065-6.399-0.914l0,0c-3.02,1.656-6.797,0.092-7.762-3.215v0c-0.67-2.298-2.777-3.879-5.172-3.879h-2.67
					h-2.67c-2.394,0-4.501,1.58-5.172,3.879v0c-0.964,3.307-4.742,4.871-7.762,3.215l0,0c-2.099-1.151-4.706-0.779-6.399,0.914
					l-1.888,1.888l-1.888,1.888c-1.693,1.693-2.065,4.3-0.914,6.399h0c1.656,3.02,0.092,6.797-3.215,7.762l0,0
					c-2.298,0.67-3.879,2.777-3.879,5.171v2.67v2.67c0,2.394,1.58,4.501,3.879,5.172h0c3.307,0.964,4.871,4.742,3.215,7.762h0
					c-1.151,2.099-0.779,4.706,0.914,6.399l1.888,1.888l1.888,1.888c1.693,1.693,4.3,2.065,6.399,0.914h0
					c3.02-1.656,6.797-0.092,7.762,3.215v0c0.67,2.298,2.777,3.879,5.172,3.879h2.67h2.67c2.394,0,4.501-1.58,5.172-3.879v0
					c0.964-3.307,4.742-4.871,7.762-3.215h0c2.099,1.151,4.706,0.779,6.399-0.914l1.888-1.888l1.888-1.888
					c1.693-1.693,2.065-4.3,0.914-6.399l0,0c-1.656-3.02-0.092-6.797,3.215-7.762h0c2.298-0.67,3.879-2.777,3.879-5.172v-2.67v-2.67
					c0-2.394-1.58-4.501-3.879-5.171l0,0C606.866,260.704,605.301,256.927,606.957,253.906z"/>
				
					<circle style="fill:none;stroke:#F5B0CB;stroke-width:2.9233;stroke-linecap:round;stroke-linejoin:round;stroke-miterlimit:10;" cx="580.265" cy="269.51" r="13.802"/>
			</g>
			<path style="opacity:0.4;fill:#745C97;" d="M594.864,348.001L594.864,348.001c-4.248-1.239-6.259-6.092-4.131-9.972v0
				c1.479-2.697,1.001-6.047-1.175-8.222l-2.426-2.426l-2.426-2.426c-2.175-2.175-5.525-2.654-8.222-1.175h0
				c-3.88,2.128-8.733,0.118-9.972-4.131v0c-0.861-2.953-3.568-4.983-6.644-4.983h-3.43h-3.43c-3.076,0-5.783,2.03-6.644,4.983v0
				c-1.239,4.248-6.092,6.259-9.972,4.131h0c-2.697-1.479-6.047-1.001-8.222,1.175l-2.426,2.426l-2.426,2.426
				c-2.175,2.175-2.654,5.525-1.175,8.222v0c2.128,3.88,0.118,8.733-4.131,9.972h0c-2.953,0.861-4.983,3.568-4.983,6.645v3.43v3.43
				c0,3.076,2.03,5.783,4.983,6.645h0c4.248,1.239,6.259,6.092,4.131,9.972c-1.479,2.697-1.001,6.047,1.175,8.222l2.426,2.426
				l2.426,2.426c2.175,2.175,5.525,2.654,8.222,1.175h0c3.88-2.128,8.733-0.118,9.972,4.131v0c0.861,2.953,3.568,4.983,6.644,4.983
				h3.43h3.43c3.076,0,5.783-2.03,6.644-4.983v0c1.239-4.248,6.092-6.259,9.972-4.131h0c2.697,1.479,6.047,1.001,8.222-1.175
				l2.426-2.426l2.426-2.426c2.175-2.175,2.654-5.525,1.175-8.222c-2.128-3.88-0.118-8.733,4.131-9.972h0
				c2.953-0.861,4.983-3.568,4.983-6.645v-3.43v-3.43C599.847,351.569,597.817,348.862,594.864,348.001z M556.438,375.809
				c-9.794,0-17.733-7.939-17.733-17.733c0-9.794,7.939-17.733,17.733-17.733c9.794,0,17.733,7.939,17.733,17.733
				C574.171,367.87,566.231,375.809,556.438,375.809z"/>
			<path style="opacity:0.4;fill:#745C97;" d="M386.568,309.77c-3.992,0.547-8.067,0.836-12.21,0.836
				c-49.243,0-89.162-39.919-89.162-89.162c0-8.402,1.164-16.532,3.336-24.239l-40.961-19.189c-4.664,13.62-7.2,28.227-7.2,43.428
				c0,73.999,59.988,133.987,133.987,133.987c9.141,0,18.067-0.919,26.693-2.663L386.568,309.77z"/>
			<path style="opacity:0.4;fill:none;stroke:#F5B0CB;stroke-width:2.9233;stroke-miterlimit:10;" d="M441.281,105.342
				c-19.692-11.375-42.547-17.884-66.923-17.884c-55.346,0-102.851,33.56-123.285,81.438l40.641,19.039
				c13.246-32.635,45.254-55.653,82.644-55.653c49.243,0,89.162,39.919,89.162,89.162c0,41.699-28.627,76.709-67.3,86.458
				l14.341,42.575c56.41-15.795,97.783-67.58,97.783-129.033c0-25.593-7.176-49.51-19.625-69.849"/>
			
				<line style="fill:none;stroke:#FFFFFF;stroke-width:3.8978;stroke-miterlimit:10;" x1="191.568" y1="392.825" x2="209.88" y2="392.825"/>
			<path style="fill:none;stroke:#FFFFFF;stroke-width:2.9233;stroke-miterlimit:10;" d="M198.796,276.988
				c0,0-0.081,7.552,6.902,8.526"/>
			
				<ellipse transform="matrix(0.7071 -0.7071 0.7071 0.7071 -46.9376 329.5711)" style="opacity:0.4;fill:none;stroke:#F5B0CB;stroke-width:2.9233;stroke-miterlimit:10;" cx="374.359" cy="221.444" rx="64.638" ry="64.638"/>
			
				<ellipse transform="matrix(0.7071 -0.7071 0.7071 0.7071 -46.9376 329.5711)" style="opacity:0.4;fill:none;stroke:#745C97;stroke-width:2.9233;stroke-miterlimit:10;" cx="374.359" cy="221.444" rx="41.252" ry="41.252"/>
			<g style="opacity:0.4;">
				
					<polygon style="fill:none;stroke:#F5B0CB;stroke-width:2.9233;stroke-linecap:round;stroke-linejoin:round;stroke-miterlimit:10;" points="
					204.299,119.651 239.321,114.668 208.233,137.927 				"/>
				
					<polygon style="fill:none;stroke:#F5B0CB;stroke-width:2.9233;stroke-linecap:round;stroke-linejoin:round;stroke-miterlimit:10;" points="
					239.321,114.668 198.843,107.245 204.299,119.651 				"/>
				
					<polyline style="fill:none;stroke:#F5B0CB;stroke-width:2.9233;stroke-linecap:round;stroke-linejoin:round;stroke-miterlimit:10;" points="
					204.298,119.654 196.997,128.071 206.153,129.708 				"/>
			</g>
			<g style="opacity:0.4;">
				<g>
					
						<line style="fill:none;stroke:#745C97;stroke-width:2.9233;stroke-miterlimit:10;" x1="192.05" y1="111.819" x2="191.017" y2="112.852"/>
					
						<line style="fill:none;stroke:#745C97;stroke-width:2.9233;stroke-miterlimit:10;stroke-dasharray:2.8339,3.7786;" x1="188.345" y1="115.524" x2="152.275" y2="151.594"/>
					
						<line style="fill:none;stroke:#745C97;stroke-width:2.9233;stroke-miterlimit:10;" x1="150.939" y1="152.93" x2="149.905" y2="153.964"/>
				</g>
			</g>
			<g style="opacity:0.4;">
				<g>
					
						<line style="fill:none;stroke:#745C97;stroke-width:2.9233;stroke-miterlimit:10;" x1="203.5" y1="141.296" x2="202.466" y2="142.329"/>
					
						<line style="fill:none;stroke:#745C97;stroke-width:2.9233;stroke-miterlimit:10;stroke-dasharray:2.8339,3.7786;" x1="199.795" y1="145.001" x2="163.725" y2="181.071"/>
					
						<line style="fill:none;stroke:#745C97;stroke-width:2.9233;stroke-miterlimit:10;" x1="162.389" y1="182.407" x2="161.355" y2="183.441"/>
				</g>
			</g>
			<g style="opacity:0.4;">
				<g>
					
						<line style="fill:none;stroke:#745C97;stroke-width:2.9233;stroke-miterlimit:10;" x1="192.05" y1="130.09" x2="191.017" y2="131.123"/>
					
						<line style="fill:none;stroke:#745C97;stroke-width:2.9233;stroke-miterlimit:10;stroke-dasharray:2.8339,3.7786;" x1="188.345" y1="133.795" x2="152.275" y2="169.865"/>
					
						<line style="fill:none;stroke:#745C97;stroke-width:2.9233;stroke-miterlimit:10;" x1="150.939" y1="171.201" x2="149.905" y2="172.235"/>
				</g>
			</g>
			<g>
				
					<circle style="opacity:0.4;fill:none;stroke:#745C97;stroke-width:2.9233;stroke-miterlimit:10;" cx="547.343" cy="164.016" r="6.984"/>
				<path style="opacity:0.4;fill:none;stroke:#745C97;stroke-width:2.9233;stroke-miterlimit:10;" d="M563.584,164.016
					c0-9.268-7.763-16.723-17.142-16.217c-7.939,0.429-14.536,6.753-15.268,14.67c-0.619,6.697,2.833,12.64,8.163,15.662
					c3.31,1.877,5.245,5.498,5.245,9.303v5.008c0,1.495,1.12,2.835,2.612,2.913c1.592,0.083,2.909-1.183,2.909-2.757v-4.981
					c0-3.89,1.963-7.597,5.334-9.537C560.305,175.281,563.584,170.036,563.584,164.016z"/>
			</g>
			<g style="opacity:0.4;">
				
					<path style="fill:none;stroke:#F5B0CB;stroke-width:2.9233;stroke-linecap:round;stroke-linejoin:round;stroke-miterlimit:10;" d="
					M481.829,143.072h-32.387c-3.806,0-6.891-3.085-6.891-6.891v-15.504c0-3.806,3.085-6.891,6.891-6.891h32.387
					c3.806,0,6.891,3.085,6.891,6.891v15.504C488.72,139.987,485.635,143.072,481.829,143.072z"/>
				
					<path style="fill:none;stroke:#F5B0CB;stroke-width:2.9233;stroke-linecap:round;stroke-linejoin:round;stroke-miterlimit:10;" d="
					M445.047,115.372l16.896,10.715c2.253,1.433,5.134,1.433,7.387,0l16.896-10.715"/>
				
					<path style="fill:none;stroke:#F5B0CB;stroke-width:2.9233;stroke-linecap:round;stroke-linejoin:round;stroke-miterlimit:10;" d="
					M458.139,113.787c0-4.141,3.356-7.497,7.497-7.497s7.497,3.356,7.497,7.497"/>
			</g>
			<path style="opacity:0.4;fill:#F5B0CB;" d="M282.077,86.027L282.077,86.027c-1.61-0.469-2.371-2.308-1.565-3.778v0
				c0.56-1.022,0.379-2.291-0.445-3.115l-0.919-0.919l-0.919-0.919c-0.824-0.824-2.093-1.005-3.115-0.445l0,0
				c-1.47,0.806-3.309,0.045-3.778-1.565c-0.326-1.119-1.352-1.888-2.517-1.888h-1.3h-1.3c-1.165,0-2.191,0.769-2.517,1.888h0
				c-0.469,1.61-2.308,2.371-3.778,1.565h0c-1.022-0.56-2.291-0.379-3.115,0.445l-0.919,0.919l-0.919,0.919
				c-0.824,0.824-1.005,2.093-0.445,3.115l0,0c0.806,1.47,0.045,3.309-1.565,3.778h0c-1.119,0.326-1.888,1.352-1.888,2.517v1.3v1.3
				c0,1.165,0.769,2.191,1.888,2.517h0c1.609,0.47,2.371,2.308,1.565,3.778c-0.56,1.022-0.379,2.291,0.445,3.115l0.919,0.919
				l0.919,0.919c0.824,0.824,2.093,1.005,3.115,0.445h0c1.47-0.806,3.309-0.045,3.778,1.565l0,0
				c0.326,1.119,1.352,1.888,2.517,1.888h1.3h1.3c1.165,0,2.191-0.769,2.517-1.888v0c0.469-1.61,2.308-2.371,3.778-1.565l0,0
				c1.022,0.56,2.291,0.379,3.115-0.445l0.919-0.919l0.919-0.919c0.824-0.824,1.005-2.093,0.445-3.115
				c-0.806-1.47-0.045-3.309,1.565-3.778h0c1.119-0.326,1.888-1.352,1.888-2.517v-1.3v-1.3
				C283.965,87.379,283.196,86.354,282.077,86.027z M267.52,96.562c-3.71,0-6.718-3.008-6.718-6.718c0-3.71,3.008-6.718,6.718-6.718
				s6.718,3.008,6.718,6.718C274.238,93.554,271.23,96.562,267.52,96.562z"/>
			
				<path style="opacity:0.4;fill:none;stroke:#F5B0CB;stroke-width:2.9233;stroke-miterlimit:10;stroke-dasharray:2.9233,3.8978;" d="
				M136.415,172.235H97.448c-5.382,0-9.744,4.363-9.744,9.744v108.367c0,5.382,4.363,9.745,9.744,9.745h25.336"/>
			
				<path style="opacity:0.4;fill:none;stroke:#F5B0CB;stroke-width:2.9233;stroke-miterlimit:10;stroke-dasharray:2.9233,3.8978;" d="
				M168.257,213.902h-50.671c-5.382,0-9.744-4.363-9.744-9.744V97.202c0-5.382,4.363-9.744,9.744-9.744h113.672"/>
			
				<path style="opacity:0.4;fill:none;stroke:#F5B0CB;stroke-width:2.9233;stroke-miterlimit:10;stroke-dasharray:2.9233,3.8978;" d="
				M510.065,124.681h85.001c5.382,0,9.744,4.363,9.744,9.744v87.019"/>
			
				<path style="opacity:0.4;fill:none;stroke:#F5B0CB;stroke-width:2.9233;stroke-miterlimit:10;stroke-dasharray:2.9233,3.8978;" d="
				M587.27,173.063h54.569c5.382,0,9.744,4.363,9.744,9.744v165.524c0,5.382-4.363,9.745-9.744,9.745h-27.788"/>
			<g style="opacity:0.4;">
				
					<line style="fill:none;stroke:#745C97;stroke-width:2.9233;stroke-miterlimit:10;" x1="307.157" y1="75.521" x2="317.145" y2="75.521"/>
				
					<line style="fill:none;stroke:#745C97;stroke-width:2.9233;stroke-miterlimit:10;" x1="312.151" y1="70.527" x2="312.151" y2="80.515"/>
			</g>
			<g style="opacity:0.4;">
				
					<line style="fill:none;stroke:#745C97;stroke-width:2.9233;stroke-miterlimit:10;" x1="217.63" y1="171.559" x2="227.618" y2="171.559"/>
				
					<line style="fill:none;stroke:#745C97;stroke-width:2.9233;stroke-miterlimit:10;" x1="222.623" y1="166.565" x2="222.623" y2="176.553"/>
			</g>
			<g style="opacity:0.4;">
				
					<line style="fill:none;stroke:#745C97;stroke-width:2.9233;stroke-miterlimit:10;" x1="131.421" y1="121.267" x2="141.409" y2="121.267"/>
				
					<line style="fill:none;stroke:#745C97;stroke-width:2.9233;stroke-miterlimit:10;" x1="136.415" y1="116.273" x2="136.415" y2="126.261"/>
			</g>
			<g style="opacity:0.4;">
				
					<line style="fill:none;stroke:#745C97;stroke-width:2.9233;stroke-miterlimit:10;" x1="519.223" y1="96.562" x2="529.211" y2="96.562"/>
				
					<line style="fill:none;stroke:#745C97;stroke-width:2.9233;stroke-miterlimit:10;" x1="524.217" y1="91.568" x2="524.217" y2="101.556"/>
			</g>
			<g style="opacity:0.4;">
				
					<line style="fill:none;stroke:#745C97;stroke-width:2.9233;stroke-miterlimit:10;" x1="272.529" y1="375.809" x2="282.517" y2="375.809"/>
				
					<line style="fill:none;stroke:#745C97;stroke-width:2.9233;stroke-miterlimit:10;" x1="277.523" y1="370.815" x2="277.523" y2="380.803"/>
			</g>
			<g style="opacity:0.4;">
				
					<line style="fill:none;stroke:#745C97;stroke-width:2.9233;stroke-miterlimit:10;" x1="626.451" y1="204.5" x2="636.439" y2="204.5"/>
				
					<line style="fill:none;stroke:#745C97;stroke-width:2.9233;stroke-miterlimit:10;" x1="631.445" y1="199.506" x2="631.445" y2="209.494"/>
			</g>
			<g style="opacity:0.4;">
				
					<line style="fill:none;stroke:#745C97;stroke-width:2.9233;stroke-miterlimit:10;" x1="458.139" y1="360.425" x2="468.127" y2="360.425"/>
				
					<line style="fill:none;stroke:#745C97;stroke-width:2.9233;stroke-miterlimit:10;" x1="463.133" y1="355.431" x2="463.133" y2="365.419"/>
			</g>
			<g style="opacity:0.4;">
				
					<line style="fill:none;stroke:#745C97;stroke-width:2.9233;stroke-miterlimit:10;" x1="614.051" y1="323.101" x2="624.039" y2="323.101"/>
				
					<line style="fill:none;stroke:#745C97;stroke-width:2.9233;stroke-miterlimit:10;" x1="619.045" y1="318.107" x2="619.045" y2="328.095"/>
			</g>
			<g style="opacity:0.4;">
				
					<line style="fill:none;stroke:#745C97;stroke-width:2.9233;stroke-miterlimit:10;" x1="117.139" y1="256.371" x2="127.128" y2="256.371"/>
				
					<line style="fill:none;stroke:#745C97;stroke-width:2.9233;stroke-miterlimit:10;" x1="122.134" y1="251.377" x2="122.134" y2="261.365"/>
			</g>
			<g style="opacity:0.4;">
				
					<line style="fill:none;stroke:#F5B0CB;stroke-width:2.9233;stroke-miterlimit:10;" x1="134.362" y1="353.904" x2="109.351" y2="353.904"/>
				
					<line style="fill:none;stroke:#F5B0CB;stroke-width:2.9233;stroke-miterlimit:10;" x1="157.214" y1="370.815" x2="113.363" y2="370.815"/>
				
					<line style="fill:none;stroke:#F5B0CB;stroke-width:2.9233;stroke-miterlimit:10;" x1="102.205" y1="353.904" x2="93.76" y2="353.904"/>
				
					<line style="fill:none;stroke:#F5B0CB;stroke-width:2.9233;stroke-miterlimit:10;" x1="348.53" y1="56.6" x2="393.68" y2="56.6"/>
				
					<line style="fill:none;stroke:#F5B0CB;stroke-width:2.9233;stroke-miterlimit:10;" x1="402.45" y1="56.6" x2="410.57" y2="56.6"/>
				
					<line style="fill:none;stroke:#F5B0CB;stroke-width:2.9233;stroke-miterlimit:10;" x1="411.869" y1="75.521" x2="462.541" y2="75.521"/>
				
					<line style="fill:none;stroke:#F5B0CB;stroke-width:2.9233;stroke-miterlimit:10;" x1="470.336" y1="75.521" x2="480.132" y2="75.521"/>
				
					<line style="fill:none;stroke:#F5B0CB;stroke-width:2.9233;stroke-miterlimit:10;" x1="438.997" y1="385.314" x2="391.731" y2="385.314"/>
				
					<line style="fill:none;stroke:#F5B0CB;stroke-width:2.9233;stroke-miterlimit:10;" x1="384.585" y1="385.314" x2="375.815" y2="385.314"/>
				
					<line style="fill:none;stroke:#F5B0CB;stroke-width:2.9233;stroke-miterlimit:10;" x1="372.902" y1="398.506" x2="325.636" y2="398.506"/>
				
					<line style="fill:none;stroke:#F5B0CB;stroke-width:2.9233;stroke-miterlimit:10;" x1="318.49" y1="398.506" x2="309.72" y2="398.506"/>
				
					<line style="fill:none;stroke:#F5B0CB;stroke-width:2.9233;stroke-miterlimit:10;" x1="604.81" y1="378.168" x2="614.051" y2="378.168"/>
				
					<line style="fill:none;stroke:#F5B0CB;stroke-width:2.9233;stroke-miterlimit:10;" x1="619.427" y1="378.168" x2="660.678" y2="378.168"/>
			</g>
		</g>
		<g>
			<polygon style="fill:#F5B07F;" points="173.026,413.95 172.408,421.607 189.574,421.607 190.315,413.95 			"/>
			<path style="fill:#D597CE;" d="M189.574,421.607c0,0,13.96,5.855,17.88,8.046c3.92,2.19,3.804,7.612,3.804,7.612h-40.694
				l1.844-15.658C172.408,421.607,189.653,421.528,189.574,421.607z"/>
			<path style="fill:#39375B;" d="M171.609,428.39c1.874-0.375,5.873-0.629,9.486,2.742c4.721,4.406,10.977,4.336,15.108,4.287
				c0.384-0.004,0.746-0.009,1.084-0.009c1.817,0,2.832-1.281,3.908-2.638c1.247-1.572,2.683-3.316,5.662-3.442
				c-0.277-0.145-0.583-0.301-0.916-0.466c-2.642,0.406-3.975,2.062-5.171,3.57c-1.035,1.306-1.928,2.432-3.483,2.432
				c-0.34,0-0.704,0.004-1.089,0.008c-4.052,0.051-10.17,0.118-14.732-4.14c-3.679-3.433-7.74-3.281-9.79-2.906L171.609,428.39z"/>
			<g>
				
					<rect x="191.86" y="424.322" transform="matrix(0.4267 -0.9044 0.9044 0.4267 -273.5611 419.1049)" style="fill:#39375B;" width="3.837" height="1.99"/>
				
					<rect x="194.156" y="425.31" transform="matrix(0.4493 -0.8934 0.8934 0.4493 -272.8746 409.9532)" style="fill:#39375B;" width="3.837" height="1.989"/>
				
					<rect x="196.628" y="426.421" transform="matrix(0.416 -0.9094 0.9094 0.416 -272.7249 430.1879)" style="fill:#39375B;" width="3.837" height="1.99"/>
			</g>
			<polygon style="fill:#F5B07F;" points="130.342,413.95 129.725,421.607 146.891,421.607 147.632,413.95 			"/>
			<path style="fill:#39375B;" d="M130.497,281.324c0,0-2.544,12.059,0.775,22.679l-3.808,113.065h25.381l7.172-90.77l9.542,89.442
				h23.243l-5.22-134.638L130.497,281.324z"/>
			<path style="fill:#D597CE;" d="M190.08,281.481c1.452-5.259,13.205-48.988,7.527-66.675
				c-5.148-16.038-45.574-16.044-45.574-16.044s-13.956,0.835-24.415,9.068c-10.769,8.477-5.282,56.238,2,73.651H190.08z"/>
			<path style="fill:#F5B07F;" d="M152.843,183.897l-2.143,18.1c0,0,3.572,5.716,11.789,6.43c8.217,0.714,10.955-4.882,10.955-4.882
				l-2.382-12.861L152.843,183.897z"/>
			<path style="fill:#F5B07F;" d="M178.207,170.56c0,0,5.359,21.435-5.716,24.292c-11.074,2.858-17.743-3.453-19.172-8.217
				c-1.429-4.763-1.786-16.076-1.786-16.076H178.207z"/>
			<path style="fill:#F5B07F;" d="M153.041,178.697c0,0-2.143-5.478-5.16-2.223c-3.017,3.255,0.079,10.797,5.557,8.336
				L153.041,178.697z"/>
			<path style="fill:#39375B;" d="M156.137,172.267c0,0,15.639,4.922,23.102,0.794c0,0,2.627-7.794-4.128-12.464
				c-7.522-5.2-22.923,1.032-22.923,1.032s-2.382,0.496-3.275,3.652c-0.832,2.94,0.635,10.241,0.635,10.241s2.342-0.079,3.95,4.386
				C153.498,179.908,155.502,176.713,156.137,172.267z"/>
			<path style="opacity:0.5;fill:#F5B07F;" d="M153.319,186.636c-0.167-0.555-0.318-1.202-0.457-1.907
				c-0.023,0.72-0.021,1.386,0.017,1.966c0.325,4.962,5.409,12.608,16.842,12.306c1.016-0.027,1.937-0.229,2.775-0.569l-0.635-3.43
				C161.166,197.463,154.721,191.308,153.319,186.636z"/>
			<path style="fill:#D597CE;" d="M128.142,207.54c0,0-12.207,10.463-16.741,35.052c-4.534,24.589,35.089,34.237,35.089,34.237
				L128.142,207.54z"/>
			<path style="opacity:0.2;fill:#D597CE;" d="M155.664,281.481l-1.759-3.747c-13.926-2.17-28.212-9.779-28.215-9.767
				c1.252,5.812,2.38,9.797,3.937,13.514H155.664z"/>
			<polygon style="fill:#FFFCD5;" points="148.197,254.683 154.707,227.594 191.634,236.958 181.216,281.713 154.267,276.468 
				159.783,258.833 			"/>
			<path style="fill:#F5B07F;" d="M159.331,259.988c0,0,5.021-1.036,9.565-0.159c0,0-1.514,2.072-3.985,2.551
				c0,0,6.765,0.478,13.683,0.213c0,0-4.636,3.123-8.661,2.391c-2.923-0.531,6.031-0.319,7.997-0.85c0,0-2.737,3.241-8.635,3.294
				c-5.898,0.053,5.367-0.691,7.386-1.116c0,0-2.205,3.002-8.289,3.666c-5.619,0.613,4.729-1.169,6.483-1.435
				c0,0-3.985,4.889-9.777,5.42s-9.744-0.57-9.744-0.57L159.331,259.988z"/>
			<path style="fill:#D597CE;" d="M146.891,421.607c0,0,13.96,5.855,17.879,8.046c3.92,2.19,3.804,7.612,3.804,7.612H127.88
				l1.845-15.658C129.725,421.607,146.969,421.528,146.891,421.607z"/>
			<path style="fill:#39375B;" d="M128.925,428.39c1.874-0.375,5.873-0.629,9.486,2.742c4.721,4.406,10.977,4.336,15.108,4.287
				c0.384-0.004,0.745-0.009,1.084-0.009c1.817,0,2.832-1.281,3.908-2.638c1.247-1.572,2.683-3.316,5.662-3.442
				c-0.277-0.145-0.583-0.301-0.916-0.466c-2.642,0.406-3.975,2.062-5.171,3.57c-1.035,1.306-1.928,2.432-3.483,2.432
				c-0.34,0-0.704,0.004-1.09,0.008c-4.052,0.051-10.17,0.118-14.732-4.14c-3.679-3.433-7.74-3.281-9.79-2.906L128.925,428.39z"/>
			<path style="fill:#F5B07F;" d="M273.139,235.186c0,0,4.25-1.944,6.963-2.216c2.713-0.271,3.708,2.08,3.708,2.08
				s5.923-1.854,12.887-1.673c0,0-5.652,3.753-10.535,4.386c0,0,2.803-1.176,3.798,0.181c0.995,1.356-0.995,2.803-0.995,2.803
				s0.995,2.17-0.633,2.984c0,0,0.452,1.763-0.859,2.306c-1.311,0.543-9.586,2.623-14.198,0.769L273.139,235.186z"/>
			<g>
				
					<rect x="149.176" y="424.322" transform="matrix(0.4267 -0.9044 0.9044 0.4267 -298.0333 380.5013)" style="fill:#39375B;" width="3.837" height="1.989"/>
				
					<rect x="151.473" y="425.31" transform="matrix(0.4493 -0.8934 0.8934 0.4493 -296.382 371.8196)" style="fill:#39375B;" width="3.837" height="1.99"/>
				
					<rect x="153.945" y="426.421" transform="matrix(0.416 -0.9094 0.9094 0.416 -297.6543 391.3718)" style="fill:#39375B;" width="3.837" height="1.99"/>
			</g>
			<path style="fill:#D597CE;" d="M183.386,203.489c0,0,7.596,1.357,23.06,12.48c15.464,11.123,24.591,13.697,33.641,14.65
				c10.309,1.085,33.912,2.713,33.912,2.713l-0.271,14.921c0,0-20.076,3.798-37.71,1.899c-17.634-1.899-43.136-8.41-43.136-8.41
				L183.386,203.489z"/>
			<path style="fill:none;stroke:#39375B;stroke-width:0.5426;stroke-miterlimit:10;" d="M132.563,214.612
				c0,0,5.788,16.549,3.256,33.008l11.214,6.24"/>
			<path style="fill:none;stroke:#39375B;stroke-width:0.5426;stroke-miterlimit:10;" d="M136.904,214.612c0,0,0,3.527-2.351,6.782"
				/>
			<path style="fill:none;stroke:#39375B;stroke-width:0.5426;stroke-miterlimit:10;" d="M144.689,201.711
				c2.026,3.524,7.278,10.162,18.214,10.46c10.335,0.282,14.423-5.228,15.959-8.642"/>
			<path style="fill:none;stroke:#39375B;stroke-width:0.5426;stroke-miterlimit:10;" d="M198.398,225.826
				c0,0,0.362,7.596-0.362,15.735"/>
			<path style="fill:none;stroke:#39375B;stroke-width:0.5426;stroke-miterlimit:10;" d="M126.278,267.786
				c0,0,14.514,8.003,25.909,9.495"/>
			<path style="fill:none;stroke:#FFFFFF;stroke-width:0.5426;stroke-miterlimit:10;" d="M140.25,282.617
				c-0.717,7.786-0.26,15.37,2.182,22.609l-6.252,105.985"/>
			
				<line style="fill:none;stroke:#FFFFFF;stroke-width:0.5426;stroke-miterlimit:10;" x1="128.991" y1="411.437" x2="152.458" y2="411.437"/>
			
				<line style="fill:none;stroke:#FFFFFF;stroke-width:0.5426;stroke-miterlimit:10;" x1="170.816" y1="411.437" x2="191.208" y2="411.437"/>
			
				<line style="fill:none;stroke:#FFFFFF;stroke-width:0.5426;stroke-miterlimit:10;" x1="160.235" y1="324.396" x2="163.988" y2="291.931"/>
			
				<line style="fill:none;stroke:#FFFFFF;stroke-width:0.5426;stroke-miterlimit:10;" x1="163.31" y1="297.448" x2="167.651" y2="291.117"/>
			<path style="fill:none;stroke:#FFFFFF;stroke-width:0.5426;stroke-miterlimit:10;" d="M152.82,283.431
				c0,0-1.266,9.405-12.66,10.128"/>
			<path style="fill:none;stroke:#FFFFFF;stroke-width:0.5426;stroke-miterlimit:10;" d="M178.864,282.436
				c0,0-0.09,8.41,7.687,9.495"/>
			
				<line style="fill:none;stroke:#FFFFFF;stroke-width:0.5426;stroke-miterlimit:10;" x1="161.14" y1="316.077" x2="171.268" y2="408.136"/>
			<g>
				<path style="fill:#39375B;" d="M168.083,179.896c0,0.702-0.569,1.271-1.271,1.271c-0.702,0-1.271-0.569-1.271-1.271
					c0-0.702,0.569-1.271,1.271-1.271C167.514,178.625,168.083,179.194,168.083,179.896z"/>
				<path style="fill:#39375B;" d="M175.583,179.896c0,0.702-0.569,1.271-1.271,1.271c-0.702,0-1.271-0.569-1.271-1.271
					c0-0.702,0.569-1.271,1.271-1.271C175.014,178.625,175.583,179.194,175.583,179.896z"/>
				<polyline style="fill:none;stroke:#745C97;stroke-width:0.5426;stroke-miterlimit:10;" points="171.042,181.5 171.792,185.667 
					169.375,185.667 				"/>
				<path style="fill:none;stroke:#745C97;stroke-width:0.5426;stroke-miterlimit:10;" d="M166.313,188.875c0,0,3.75,2.5,7.813,0"/>
			</g>
		</g>
		<g>
			<polygon style="fill:#F5B07F;" points="419.521,413.932 420.139,421.595 402.961,421.595 402.219,413.932 			"/>
			<path style="fill:#745C97;" d="M402.961,421.595c0,0-13.97,5.86-17.893,8.052c-3.922,2.192-3.807,7.618-3.807,7.618h40.725
				l-1.846-15.669C420.139,421.595,402.882,421.516,402.961,421.595z"/>
			<path style="fill:#39375B;" d="M420.939,428.384c-1.875-0.375-5.878-0.629-9.493,2.744c-4.724,4.41-10.986,4.339-15.119,4.29
				c-0.384-0.004-0.746-0.008-1.084-0.008c-1.818,0-2.834-1.282-3.911-2.64c-1.248-1.573-2.685-3.318-5.666-3.444
				c0.277-0.145,0.583-0.301,0.917-0.466c2.644,0.406,3.978,2.063,5.175,3.573c1.036,1.307,1.93,2.434,3.486,2.434
				c0.34,0,0.705,0.004,1.09,0.009c4.055,0.051,10.178,0.118,14.743-4.144c3.681-3.436,7.746-3.284,9.797-2.908L420.939,428.384z"/>
			<g>
				
					<rect x="396.834" y="424.313" transform="matrix(-0.4267 -0.9044 0.9044 -0.4267 184.2307 967.4071)" style="fill:#39375B;" width="3.84" height="1.991"/>
				
					<rect x="394.535" y="425.301" transform="matrix(-0.4493 -0.8934 0.8934 -0.4493 193.7159 972.009)" style="fill:#39375B;" width="3.84" height="1.991"/>
				
					<rect x="392.062" y="426.413" transform="matrix(-0.416 -0.9094 0.9094 -0.416 169.1799 963.4708)" style="fill:#39375B;" width="3.84" height="1.991"/>
			</g>
			<polygon style="fill:#F5B07F;" points="462.237,413.932 462.855,421.595 445.676,421.595 444.935,413.932 			"/>
			<path style="fill:#39375B;" d="M462.082,281.208c0,0,2.546,12.068-0.775,22.696l3.811,113.15h-25.4l-7.177-90.838l-9.549,89.509
				h-23.26l5.223-134.739L462.082,281.208z"/>
			<path style="fill:#745C97;" d="M445.676,421.595c0,0-13.97,5.86-17.893,8.052c-3.922,2.192-3.807,7.618-3.807,7.618h40.725
				l-1.846-15.669C462.855,421.595,445.598,421.516,445.676,421.595z"/>
			<path style="fill:#39375B;" d="M463.655,428.384c-1.875-0.375-5.878-0.629-9.493,2.744c-4.724,4.41-10.986,4.339-15.119,4.29
				c-0.384-0.004-0.746-0.008-1.084-0.008c-1.818,0-2.834-1.282-3.911-2.64c-1.248-1.573-2.685-3.318-5.666-3.444
				c0.277-0.145,0.583-0.301,0.917-0.466c2.644,0.406,3.978,2.063,5.175,3.573c1.036,1.307,1.93,2.434,3.486,2.434
				c0.34,0,0.705,0.004,1.09,0.009c4.055,0.051,10.178,0.118,14.743-4.144c3.681-3.436,7.746-3.284,9.797-2.908L463.655,428.384z"/>
			<g>
				
					<rect x="439.55" y="424.313" transform="matrix(-0.4267 -0.9044 0.9044 -0.4267 245.1697 1006.0391)" style="fill:#39375B;" width="3.84" height="1.991"/>
				
					<rect x="437.251" y="425.301" transform="matrix(-0.4493 -0.8934 0.8934 -0.4493 255.6221 1010.171)" style="fill:#39375B;" width="3.84" height="1.991"/>
				
					<rect x="434.777" y="426.413" transform="matrix(-0.416 -0.9094 0.9094 -0.416 229.6632 1002.3157)" style="fill:#39375B;" width="3.84" height="1.991"/>
			</g>
			<path style="fill:none;stroke:#FFFFFF;stroke-width:0.543;stroke-miterlimit:10;" d="M452.322,282.502
				c0.717,7.792,0.261,15.381-2.184,22.626l6.257,106.064"/>
			
				<line style="fill:none;stroke:#FFFFFF;stroke-width:0.543;stroke-miterlimit:10;" x1="463.589" y1="411.418" x2="440.104" y2="411.418"/>
			
				<line style="fill:none;stroke:#FFFFFF;stroke-width:0.543;stroke-miterlimit:10;" x1="421.733" y1="411.418" x2="401.325" y2="411.418"/>
			
				<line style="fill:none;stroke:#FFFFFF;stroke-width:0.543;stroke-miterlimit:10;" x1="432.321" y1="324.312" x2="428.566" y2="291.823"/>
			
				<line style="fill:none;stroke:#FFFFFF;stroke-width:0.543;stroke-miterlimit:10;" x1="429.244" y1="297.344" x2="424.9" y2="291.009"/>
			<path style="fill:none;stroke:#FFFFFF;stroke-width:0.543;stroke-miterlimit:10;" d="M439.742,283.316
				c0,0,1.267,9.412,12.67,10.136"/>
			<path style="fill:none;stroke:#FFFFFF;stroke-width:0.543;stroke-miterlimit:10;" d="M413.679,282.321
				c0,0,0.091,8.417-7.693,9.502"/>
			
				<line style="fill:none;stroke:#FFFFFF;stroke-width:0.543;stroke-miterlimit:10;" x1="431.416" y1="315.986" x2="421.28" y2="408.115"/>
			<path style="fill:#745C97;" d="M442.241,206.644c0,0,22.17,6.246,27.27,8.541c0,0,0.085,25.241-7.054,66.205h-59.661
				c-4.411-21.802-6.327-44.431-5.439-67.99c0,0,7.925-2.444,23.509-5.301L442.241,206.644z"/>
			<path style="fill:#39375B;" d="M448.423,175.267c0-1.539-1.077-2.821-2.516-3.148c0.192-0.413,0.307-0.87,0.307-1.356
				c0-1.786-1.448-3.235-3.235-3.235c-0.396,0-0.77,0.081-1.121,0.211c0.115-0.333,0.191-0.684,0.191-1.056
				c0-1.787-1.448-3.235-3.235-3.235c-0.701,0-1.346,0.229-1.875,0.608c-0.531-1.062-1.616-1.797-2.884-1.797
				c-0.9,0-1.712,0.368-2.299,0.961c-0.337-1.426-1.611-2.491-3.141-2.491c-1.172,0-2.188,0.629-2.756,1.562
				c-0.593-0.739-1.492-1.221-2.513-1.221c-1.556,0-2.853,1.099-3.163,2.562c-0.473-0.271-1.013-0.437-1.597-0.437
				c-1.786,0-3.235,1.448-3.235,3.235c0,0.572,0.161,1.102,0.422,1.568c-1.58,0.214-2.802,1.553-2.802,3.191
				c0,0.889,0.359,1.694,0.94,2.279c-1.686,0.111-3.023,1.5-3.023,3.213c0,1.612,1.182,2.938,2.725,3.183
				c-0.214,0.432-0.345,0.912-0.345,1.427c0,1.787,1.448,3.235,3.235,3.235c1.016,0,1.912-0.478,2.505-1.211h23.454
				c0.513,0.341,1.127,0.542,1.789,0.542c1.787,0,3.235-1.448,3.235-3.235c0-0.941-0.408-1.78-1.049-2.371
				C447.604,177.761,448.423,176.61,448.423,175.267z M416.478,174.392v0.081c-0.021-0.022-0.037-0.05-0.059-0.071
				C416.44,174.4,416.458,174.393,416.478,174.392z"/>
			<path style="fill:#F5B07F;" d="M440.226,189.633l2.014,17.01c0,0-3.357,5.372-11.079,6.043
				c-7.722,0.671-10.296-4.588-10.296-4.588l2.238-12.086L440.226,189.633z"/>
			<path style="fill:#F5B07F;" d="M416.389,177.099c0,0-5.036,20.144,5.372,22.83c10.408,2.686,16.675-3.245,18.018-7.722
				c1.343-4.476,1.679-15.108,1.679-15.108H416.389z"/>
			<path style="fill:#F5B07F;" d="M440.04,184.747c0,0,2.014-5.148,4.849-2.089c2.835,3.059-0.075,10.147-5.222,7.834
				L440.04,184.747z"/>
			<path style="opacity:0.5;fill:#F5B07F;" d="M439.779,192.207c0.157-0.522,0.299-1.13,0.429-1.792
				c0.022,0.677,0.019,1.302-0.016,1.847c-0.305,4.664-5.083,11.849-15.828,11.565c-0.955-0.025-1.821-0.215-2.608-0.535
				l0.597-3.224C432.405,202.382,438.462,196.598,439.779,192.207z"/>
			<path style="fill:#39375B;" d="M415.714,177.96c0,0,2.295,1.657,7.521,1.657c5.227,0,9.943-1.657,12.174-0.829
				s1.02,2.932,1.657,4.143c0.637,1.211,1.211,2.805,0.319,5.418h2.04l1.785-5.673l2.04-4.207l-1.339-3.952l-11.091-1.785
				l-8.732,0.128l-6.31,1.657L415.714,177.96z"/>
			<path style="fill:#F5B07F;" d="M357.664,197.16c0,0-2.437-6.655-5.249-7.967c0,0-0.422,1.687-0.141,3.046
				c0,0-7.545-13.45-9.795-13.45c0,0,0,4.358,3.327,9.795c0,0-1.828-1.875-3.093-1.593c-1.265,0.281,0.281,2.859,0.281,2.859
				s-1.64-1.687-2.671-0.937c-1.031,0.75,0.328,2.577,0.328,2.577s-0.797-0.797-1.828,0.094c-1.031,0.891,2.671,9.795,5.014,13.403
				L357.664,197.16z"/>
			<path style="fill:#745C97;" d="M397.356,213.4c0,0-12.748,3.909-23.456,10.198l-15.468-27.876l-16.997,9.689
				c0,0,8.669,30.595,19.377,42.663c10.708,12.068,40.284-4.079,40.284-4.079"/>
			<path style="fill:#745C97;" d="M469.51,215.185c0,0,10.198,8.159,14.023,28.301l-19.887,22.437L469.51,215.185z"/>
			<path style="fill:#FFFCD5;" d="M481.756,235.389l-15.587,21.566c-0.945,7.333-2.157,15.51-3.712,24.434h-0.338
				c0.044,0.226,0.124,0.664,0.221,1.278l17.35,13.333l30.462-38.32L481.756,235.389z"/>
			<path style="fill:#F5B07F;" d="M497.762,272.357c0,0-2.843-2.125-4.057-0.69c-1.199,1.417,0.994,3.257,0.994,3.257
				s-2.208-1.215-3.036-0.055c-0.828,1.159,0.662,3.147,0.662,3.147s-1.546-0.828-2.429,0.055c-0.883,0.883,0.221,2.374,0.221,2.374
				s-1.159-0.497-1.767,0.276c-0.607,0.773-0.11,2.042,1.215,3.312c1.325,1.27,4.471,1.049,7.563-2.539
				c3.091-3.588,1.766-10.599,1.766-10.599L497.762,272.357z"/>
			<path style="fill:none;stroke:#39375B;stroke-width:0.5308;stroke-miterlimit:10;" d="M397.63,243.882
				c0,0-1.061-6.811-1.592-16.719"/>
			<path style="fill:none;stroke:#39375B;stroke-width:0.5308;stroke-miterlimit:10;" d="M393.738,228.755
				c0,0,0.885,3.096,2.742,4.777"/>
			<path style="fill:none;stroke:#39375B;stroke-width:0.5308;stroke-miterlimit:10;" d="M469.017,227.693
				c0,0-0.664,14.596-2.786,27.467"/>
			<path style="fill:none;stroke:#39375B;stroke-width:0.5308;stroke-miterlimit:10;" d="M471.671,226.964
				c0,0-0.133,3.516-2.853,5.109"/>
			<path style="fill:none;stroke:#39375B;stroke-width:0.5308;stroke-miterlimit:10;" d="M418.462,211.107
				c0,0,2.786,5.175,11.146,5.175c8.359,0,14.331-5.971,14.331-5.971"/>
			<g>
				<path style="fill:#39375B;" d="M424.646,184.417c0,0.702,0.569,1.271,1.271,1.271c0.702,0,1.271-0.569,1.271-1.271
					c0-0.702-0.569-1.271-1.271-1.271C425.215,183.146,424.646,183.715,424.646,184.417z"/>
				<path style="fill:#39375B;" d="M417.146,184.417c0,0.702,0.569,1.271,1.271,1.271c0.702,0,1.271-0.569,1.271-1.271
					c0-0.702-0.569-1.271-1.271-1.271C417.715,183.146,417.146,183.715,417.146,184.417z"/>
				<polyline style="fill:none;stroke:#745C97;stroke-width:0.5426;stroke-miterlimit:10;" points="421.688,186.021 
					420.938,190.188 423.354,190.188 				"/>
				<path style="fill:none;stroke:#745C97;stroke-width:0.5426;stroke-miterlimit:10;" d="M426.417,193.396c0,0-3.75,2.5-7.813,0"/>
			</g>
		</g>
		<g>
			<g>
				<polygon style="fill:#F5B07F;" points="590.031,413.932 590.648,421.595 573.47,421.595 572.728,413.932 				"/>
				<path style="fill:#D597CE;" d="M573.47,421.595c0,0-13.97,5.86-17.893,8.052c-3.922,2.192-3.807,7.618-3.807,7.618h40.725
					l-1.846-15.669C590.648,421.595,573.391,421.516,573.47,421.595z"/>
				<path style="fill:#39375B;" d="M591.448,428.384c-1.875-0.375-5.878-0.629-9.493,2.744c-4.724,4.41-10.986,4.339-15.119,4.29
					c-0.384-0.004-0.746-0.008-1.084-0.008c-1.818,0-2.834-1.282-3.911-2.64c-1.248-1.573-2.685-3.318-5.666-3.444
					c0.278-0.145,0.583-0.301,0.917-0.466c2.644,0.406,3.978,2.063,5.175,3.573c1.036,1.307,1.93,2.434,3.486,2.434
					c0.34,0,0.705,0.004,1.09,0.009c4.055,0.051,10.178,0.118,14.743-4.144c3.681-3.436,7.746-3.284,9.797-2.908L591.448,428.384z"
					/>
				<g>
					
						<rect x="567.343" y="424.313" transform="matrix(-0.4267 -0.9044 0.9044 -0.4267 427.4886 1121.6177)" style="fill:#39375B;" width="3.84" height="1.991"/>
					
						<rect x="565.044" y="425.301" transform="matrix(-0.4493 -0.8934 0.8934 -0.4493 440.8286 1124.3416)" style="fill:#39375B;" width="3.84" height="1.991"/>
					
						<rect x="562.571" y="426.413" transform="matrix(-0.416 -0.9094 0.9094 -0.416 410.6126 1118.5293)" style="fill:#39375B;" width="3.84" height="1.991"/>
				</g>
				<polygon style="fill:#F5B07F;" points="632.746,413.932 633.364,421.595 616.185,421.595 615.444,413.932 				"/>
				<path style="fill:#745C97;" d="M632.591,281.208c0,0,2.546,12.068-0.775,22.696l3.811,113.15h-25.4l-7.178-90.838l-9.549,89.509
					h-23.26l5.224-134.739L632.591,281.208z"/>
				<path style="fill:#D597CE;" d="M616.185,421.595c0,0-13.97,5.86-17.893,8.052c-3.922,2.192-3.807,7.618-3.807,7.618h40.725
					l-1.846-15.669C633.364,421.595,616.107,421.516,616.185,421.595z"/>
				<path style="fill:#39375B;" d="M634.164,428.384c-1.875-0.375-5.878-0.629-9.493,2.744c-4.724,4.41-10.986,4.339-15.119,4.29
					c-0.384-0.004-0.746-0.008-1.084-0.008c-1.818,0-2.834-1.282-3.911-2.64c-1.248-1.573-2.685-3.318-5.666-3.444
					c0.278-0.145,0.583-0.301,0.917-0.466c2.644,0.406,3.978,2.063,5.175,3.573c1.036,1.307,1.93,2.434,3.485,2.434
					c0.34,0,0.705,0.004,1.09,0.009c4.055,0.051,10.178,0.118,14.743-4.144c3.681-3.436,7.746-3.284,9.797-2.908L634.164,428.384z"
					/>
				<g>
					
						<rect x="610.059" y="424.313" transform="matrix(-0.4267 -0.9044 0.9044 -0.4267 488.4265 1160.2499)" style="fill:#39375B;" width="3.84" height="1.991"/>
					
						<rect x="607.76" y="425.301" transform="matrix(-0.4493 -0.8934 0.8934 -0.4493 502.7349 1162.5035)" style="fill:#39375B;" width="3.84" height="1.991"/>
					
						<rect x="605.286" y="426.413" transform="matrix(-0.416 -0.9094 0.9094 -0.416 471.0958 1157.3743)" style="fill:#39375B;" width="3.84" height="1.991"/>
				</g>
				<path style="fill:none;stroke:#FFFFFF;stroke-width:0.543;stroke-miterlimit:10;" d="M622.831,282.502
					c0.717,7.792,0.261,15.381-2.184,22.626l6.257,106.064"/>
				
					<line style="fill:none;stroke:#FFFFFF;stroke-width:0.543;stroke-miterlimit:10;" x1="634.098" y1="411.418" x2="610.613" y2="411.418"/>
				
					<line style="fill:none;stroke:#FFFFFF;stroke-width:0.543;stroke-miterlimit:10;" x1="592.242" y1="411.418" x2="571.834" y2="411.418"/>
				
					<line style="fill:none;stroke:#FFFFFF;stroke-width:0.543;stroke-miterlimit:10;" x1="602.83" y1="324.312" x2="599.075" y2="291.823"/>
				
					<line style="fill:none;stroke:#FFFFFF;stroke-width:0.543;stroke-miterlimit:10;" x1="599.753" y1="297.344" x2="595.409" y2="291.009"/>
				<path style="fill:none;stroke:#FFFFFF;stroke-width:0.543;stroke-miterlimit:10;" d="M610.251,283.316
					c0,0,1.267,9.412,12.67,10.136"/>
				<path style="fill:none;stroke:#FFFFFF;stroke-width:0.543;stroke-miterlimit:10;" d="M584.188,282.321
					c0,0,0.091,8.417-7.692,9.502"/>
				
					<line style="fill:none;stroke:#FFFFFF;stroke-width:0.543;stroke-miterlimit:10;" x1="601.925" y1="315.986" x2="591.789" y2="408.115"/>
			</g>
			<path style="fill:#745C97;" d="M538.731,283.828c0,0,12.208,4.883,32.013-3.527l-19.805-9.224L538.731,283.828z"/>
			<path style="fill:#745C97;" d="M571.106,212.93c0,0-16.64,13.746-25.321,42.684l36.896-0.362L571.106,212.93z"/>
			<g>
				<path style="fill:#39375B;" d="M611.981,165.996c0,0-7.596-6.963-17.092-4.702s-10.4,6.602-10.038,12.027
					s1.357,7.777-3.256,13.384c-4.612,5.607-7.687,10.581-3.708,16.278c3.979,5.697-1.176,10.49-1.176,10.49h45.668
					c0,0-6.149-9.586-3.979-16.82c2.17-7.235,8.32-13.655,4.069-17.273S622.471,165.725,611.981,165.996z"/>
				<path style="fill:#F5B07F;" d="M611.136,189.633l2.014,17.01c0,0-3.357,5.372-11.079,6.043
					c-7.722,0.671-10.296-4.588-10.296-4.588l2.238-12.086L611.136,189.633z"/>
				<path style="fill:#F5B07F;" d="M587.299,177.099c0,0-5.036,20.144,5.372,22.83c10.408,2.686,16.675-3.245,18.018-7.722
					c1.343-4.476,1.679-15.108,1.679-15.108H587.299z"/>
				<path style="fill:#F5B07F;" d="M610.95,184.747c0,0,2.014-5.148,4.849-2.089c2.835,3.059-0.075,10.147-5.222,7.834
					L610.95,184.747z"/>
				<path style="opacity:0.5;fill:#F5B07F;" d="M610.689,192.207c0.157-0.522,0.299-1.13,0.429-1.792
					c0.022,0.677,0.019,1.302-0.016,1.847c-0.305,4.664-5.083,11.849-15.828,11.565c-0.955-0.025-1.821-0.215-2.608-0.535
					l0.597-3.224C603.315,202.382,609.372,196.598,610.689,192.207z"/>
				<path style="fill:#39375B;" d="M586.208,179.199l13.022-1.266c0,0,2.984,13.655,16.73,12.208l5.788-5.607l-7.958-9.495
					c0,0-7.144-5.426-8.139-5.426s-17.272,0.633-17.272,0.633l-1.447,4.974L586.208,179.199z"/>
			</g>
			<polygon style="fill:#D597CE;" points="578.476,292.781 624.054,292.781 621.748,225.635 606.148,219.938 586.751,225.229 			"/>
			<path style="fill:#F5B07F;" d="M591.776,208.099v19.572c0,0,7.545,3.165,22.737,0l-1.362-21.027L591.776,208.099z"/>
			<path style="fill:#745C97;" d="M591.776,208.099c0,0-7.648,1.937-20.67,4.831c0,0-2.532,35.087-7.235,82.474h34.002v-83.921
				L591.776,208.099z"/>
			<path style="fill:#745C97;" d="M613.151,206.644l19.991,7.19l7.777,81.208h-32.736V210.76
				C608.183,210.76,610.884,209.401,613.151,206.644z"/>
			<path style="fill:#FFFFFF;" d="M588.65,275.69H532.22c-2.997,0-5.426-2.429-5.426-5.426v-35.088c0-2.997,2.429-5.426,5.426-5.426
				h56.429c2.997,0,5.426,2.429,5.426,5.426v35.088C594.076,273.26,591.646,275.69,588.65,275.69z"/>
			<path style="fill:#FFFCD5;" d="M585.937,275.69h-56.429c-2.997,0-5.426-2.429-5.426-5.426v-35.088
				c0-2.997,2.429-5.426,5.426-5.426h56.429c2.997,0,5.426,2.429,5.426,5.426v35.088C591.363,273.26,588.933,275.69,585.937,275.69z
				"/>
			<path style="fill:#FFFFFF;" d="M606.439,280.987H526.73c-1.463,0-2.649-1.186-2.649-2.649l0,0c0-1.463,1.186-2.649,2.649-2.649
				h79.709c1.463,0,2.649,1.186,2.649,2.649l0,0C609.087,279.801,607.901,280.987,606.439,280.987z"/>
			<path style="fill:#FFFCD5;" d="M601.562,280.987H526.73c-1.463,0-2.649-1.186-2.649-2.649l0,0c0-1.463,1.186-2.649,2.649-2.649
				h74.832c1.463,0,2.649,1.186,2.649,2.649l0,0C604.211,279.801,603.025,280.987,601.562,280.987z"/>
			<path style="fill:#FFFFFF;" d="M555.21,252.925c-0.102,2.151-1.874,3.861-4.054,3.861c-2.247,0-4.066-1.819-4.066-4.066
				c0-2.247,1.819-4.066,4.066-4.066c2.181,0,3.952,1.711,4.054,3.861c-0.102-1.024-0.97-1.831-2.024-1.831
				c-1.12,0-2.03,0.916-2.03,2.036c0,1.12,0.91,2.036,2.03,2.036C554.24,254.756,555.107,253.949,555.21,252.925z"/>
			<path style="fill:#F5B07F;" d="M536.222,280.946l2.419-4.171c0,0,0.633-1.085,1.899-0.723c1.266,0.362,0.724,2.08,0.724,2.08
				l-1.537,3.889l2.622-3.889c0,0,0.825-1.357,1.809-1.051c0.984,0.305,0.305,1.696,0.305,1.696l-1.729,4.035l2.34-4.002
				c0,0,0.678-1.187,1.662-0.882c0.984,0.305,0.509,1.492,0.509,1.492l-1.39,3.629l1.831-3.357c0,0,0.509-1.255,1.39-1.017
				c0.882,0.237,0.543,1.424,0.543,1.424l-0.983,3.527c0,0-2.916,1.357-6.986,1.458c-4.069,0.102-8.546-4.137-8.546-4.137H536.222z"
				/>
			<path style="fill:#F5B07F;" d="M606.51,263.526c-3.346,0-11.214,6.33-11.214,6.33s0.904,0.633,3.075-0.045
				c2.17-0.678,5.969-2.622,5.969-2.622l-6.24,3.527c0,0,0.995,1.311,2.939,0.452c1.944-0.859,4.567-2.08,4.567-2.08l-4.567,3.165
				c0,0,0.362,0.633,2.396,0.226c2.035-0.407,4.024-1.085,4.024-1.085s0.678,3.708,8.184,5.155s10.49,0.09,10.49,0.09v-8.229
				C626.134,268.41,609.856,263.526,606.51,263.526z"/>
			<path style="fill:#745C97;" d="M633.142,213.834c0,0,13.293,17.363,19.533,28.486c6.24,11.123-2.17,32.555-14.379,41.779
				l-8.681,1.356L633.142,213.834z"/>
			
				<line style="fill:none;stroke:#39375B;stroke-width:0.5308;stroke-miterlimit:10;" x1="634.589" y1="256.518" x2="631.876" y2="230.835"/>
			<path style="fill:none;stroke:#39375B;stroke-width:0.5308;stroke-miterlimit:10;" d="M632.328,234.385
				c0,0,1.424-1.628,1.628-4.137"/>
			
				<line style="fill:none;stroke:#39375B;stroke-width:0.5308;stroke-miterlimit:10;" x1="570.337" y1="224.957" x2="569.93" y2="228.484"/>
			<polyline style="fill:none;stroke:#39375B;stroke-width:0.5308;stroke-miterlimit:10;" points="597.241,212.839 592.086,220.526 
				588.288,210.036 			"/>
			<polyline style="fill:none;stroke:#39375B;stroke-width:0.5308;stroke-miterlimit:10;" points="608.997,211.935 611.167,219.622 
				617.588,209.493 			"/>
			
				<line style="fill:none;stroke:#39375B;stroke-width:0.5308;stroke-miterlimit:10;" x1="630.565" y1="294.68" x2="609.675" y2="294.68"/>
			
				<line style="fill:none;stroke:#39375B;stroke-width:0.5308;stroke-miterlimit:10;" x1="576.577" y1="295.63" x2="594.211" y2="295.63"/>
			
				<line style="fill:none;stroke:#39375B;stroke-width:0.5308;stroke-miterlimit:10;" x1="613.744" y1="235.402" x2="627.038" y2="235.402"/>
			<g>
				<path style="fill:#39375B;" d="M595.396,184.167c0,0.702,0.569,1.271,1.271,1.271c0.702,0,1.271-0.569,1.271-1.271
					c0-0.702-0.569-1.271-1.271-1.271C595.965,182.896,595.396,183.465,595.396,184.167z"/>
				<path style="fill:#39375B;" d="M587.896,184.167c0,0.702,0.569,1.271,1.271,1.271c0.702,0,1.271-0.569,1.271-1.271
					c0-0.702-0.569-1.271-1.271-1.271C588.465,182.896,587.896,183.465,587.896,184.167z"/>
				<polyline style="fill:none;stroke:#745C97;stroke-width:0.5426;stroke-miterlimit:10;" points="592.438,185.771 
					591.688,189.938 594.104,189.938 				"/>
				<path style="fill:none;stroke:#745C97;stroke-width:0.5426;stroke-miterlimit:10;" d="M597.167,193.146c0,0-3.75,2.5-7.813,0"/>
			</g>
		</g>
		
			<line style="opacity:0.4;fill:none;stroke:#745C97;stroke-width:2.9233;stroke-miterlimit:10;" x1="81.192" y1="438.892" x2="687.808" y2="438.892"/>
	</g>
</g>
</svg>
